<?xml version="1.0" encoding="UTF-8"?>
<!DOCTYPE svg PUBLIC "-//W3C//DTD SVG 1.1//EN" "http://www.w3.org/Graphics/SVG/1.1/DTD/svg11.dtd">
<!-- Creator: CorelDRAW -->
<svg xmlns="http://www.w3.org/2000/svg" xml:space="preserve" width="300mm" height="300mm" version="1.1" style="shape-rendering:geometricPrecision; text-rendering:geometricPrecision; image-rendering:optimizeQuality; fill-rule:evenodd; clip-rule:evenodd"
viewBox="0 0 30000 30000"
 xmlns:xlink="http://www.w3.org/1999/xlink"
 xmlns:xodm="http://www.corel.com/coreldraw/odm/2003">
 <defs>
  <style type="text/css">
   <![CDATA[
    .str0 {stroke:#FEFEFE;stroke-width:79.37;stroke-miterlimit:22.9256}
    .fil0 {fill:#FEFEFE}
   ]]>
  </style>
 </defs>
 <g id="圖層_x0020_1">
  <metadata id="CorelCorpID_0Corel-Layer"/>
  <g id="_2561121872992">
   <path class="fil0 str0" d="M14159.94 17291.47l9417.74 -6026.76 1054.72 1826.87 -9929.23 5143.33c-168.31,-322.79 -349.77,-637.78 -543.23,-943.44z"/>
   <path class="fil0 str0" d="M15253.35 19489.02c-15.1,-105.33 -41.89,-206.91 -79.61,-304.56l8396.25 -2489.84 201.52 752.05 -8518.16 2042.35z"/>
   <path class="fil0 str0" d="M26033.96 21568.7l-10050.85 0c-137.39,10.4 -280.4,57.18 -429.68,145.61l0 -1531.76c170,80.64 313.62,124.86 429.68,130.02l10050.85 0c133.61,5.23 276.58,-38.98 428.38,-130.02l0 1516.17c-195.68,-85.84 -338.69,-130.02 -428.38,-130.02z"/>
   <path class="fil0 str0" d="M14012.31 21568.66l-4720.9 0 17.58 2752.4c448.86,137.89 774.93,555.53 774.93,1049.45 0,606.29 -491.4,1097.69 -1097.76,1097.69 -606.2,0 -1097.64,-491.4 -1097.64,-1097.69 0,-494.34 326.72,-912.29 775.66,-1049.57l17.39 -2752.28 -4720.18 0c-137.32,10.44 -280.36,57.22 -429.6,145.65l0 -1531.76c169.99,80.64 313.61,124.86 429.6,130.02l4728.09 0 31.18 -4941.61c-1.14,-173.47 -109.3,-295.85 -265.34,-368.38l-523.85 -11464.93 2109.5 0 -523.74 11468.75c-155.54,68.71 -264.39,191.09 -265.46,364.56l31.61 4941.61 4728.93 0c133.61,5.23 276.54,-38.98 428.38,-130.02l0 1516.17c-195.71,-85.84 -338.72,-130.06 -428.38,-130.06zm-5026.11 3228.59c316.67,0 573.34,256.59 573.34,573.19 0,316.63 -256.67,573.34 -573.34,573.34 -316.63,0 -573.26,-256.71 -573.26,-573.34 0,-316.6 256.63,-573.19 573.26,-573.19z"/>
  </g>
 </g>
</svg>
